<svg id="Layer_1" data-name="Layer 1" xmlns="http://www.w3.org/2000/svg" viewBox="0 0 100 99.98"><defs><style>.cls-1,.cls-2{fill:#fff;stroke:#000;stroke-miterlimit:10;}.cls-1{stroke-width:5px;}.cls-2{stroke-width:5px;}</style></defs><title>Cube</title><path class="cls-1" d="M2.5,73.75C2.5,74.39,3,75,4,75.51L46.46,96.76a8.89,8.89,0,0,0,7.08,0L96,75.51c1-.48,1.47-1.12,1.47-1.76" transform="translate(0 -0.02)"/><path class="cls-2" d="M96,28,53.54,49.29a8.89,8.89,0,0,1-7.08,0L4,28c-2-1-2-2.56,0-3.54L46.46,3.25a9,9,0,0,1,7.08,0L96,24.5C98,25.48,98,27.06,96,28Z" transform="translate(0 -0.02)"/><rect x="47.5" y="50" width="5" height="47.48"/><rect y="26.25" width="5" height="47.47"/><rect x="95" y="26.25" width="5" height="47.47"/><circle cx="73.75" cy="62.98" r="2.5"/><circle cx="57.44" cy="55.38" r="2.5"/><circle cx="81.91" cy="66.79" r="2.5"/><circle cx="65.59" cy="59.18" r="2.5"/><circle cx="90.07" cy="70.59" r="2.5"/><circle cx="50" cy="31.25" r="2.5"/><circle cx="50" cy="21.25" r="2.5"/><circle cx="50" cy="41.25" r="2.5"/><circle cx="50" cy="11.25" r="2.5"/><circle cx="26.25" cy="62.99" r="2.5"/><circle cx="42.57" cy="55.38" r="2.5"/><circle cx="18.1" cy="66.79" r="2.5"/><circle cx="34.41" cy="59.18" r="2.5"/><circle cx="9.94" cy="70.59" r="2.5"/></svg>