<svg id="Layer_1" data-name="Layer 1" xmlns="http://www.w3.org/2000/svg" viewBox="0 0 62.59 100"><defs><style>.cls-1{fill:#fff;stroke-width:9px;}.cls-1,.cls-2{stroke:#000;stroke-miterlimit:10;}.cls-2{fill:none;stroke-width:10px;}</style></defs><title>Dollar</title><path class="cls-1" d="M82.08,0" transform="translate(-18.01 0)"/><rect x="27.99" width="8" height="100" rx="4"/><path class="cls-2" d="M72.31,26.13a24.08,24.08,0,0,0-5.44-7C60.44,13.4,53,13.31,50,13.28a25.64,25.64,0,0,0-14.5,3.81,18.15,18.15,0,0,0-7.34,7.63A16.86,16.86,0,0,0,27.33,37c2,5.92,6.87,8.6,9.43,10,3,1.62,6.37,2.18,13.13,3.33,7.83,1.33,8.38.71,11.68,2A21.22,21.22,0,0,1,72.11,60c.76,1.12,5.17,7.61,2.8,15-1.84,5.7-6.63,8.46-8.52,9.55-4.87,2.81-9.45,2.78-16.22,2.75-4,0-7.86-.07-12.56-1.87A22.33,22.33,0,0,1,23,70" transform="translate(-18.01 0)"/><rect y="64.94" width="10" height="10" rx="5"/><rect x="49.43" y="21.39" width="10" height="10" rx="5"/></svg>