<svg id="Layer_1_copy" data-name="Layer 1 copy" xmlns="http://www.w3.org/2000/svg" viewBox="0 0 99.88 100"><title>Paw</title><path d="M47.46,41.92a18.67,18.67,0,0,0-10.29.18A19.34,19.34,0,0,0,29.3,47c-1.25,1.23-1,1.3-4.6,6.1a78.91,78.91,0,0,1-5.42,6.79c-2.4,2.57-2.6,2.22-5.49,5.09-2.7,2.69-5.13,5.1-6.57,8.53a12.87,12.87,0,0,0-1.1,8.19,12,12,0,0,0,3.94,6.37,10.11,10.11,0,0,0,5.07,2.6c2.64.44,4.71-.42,7.24-1.52,3.78-1.64,3.47-2.56,6.43-3.7a14.6,14.6,0,0,1,9.05-.68,14.43,14.43,0,0,1,6.53,3.87c3,3,2.15,4.68,5,7.51A12.74,12.74,0,0,0,57.59,100a10.55,10.55,0,0,0,6.66-1.88,12.46,12.46,0,0,0,4.29-6.44,21.08,21.08,0,0,0,1.07-7,22.2,22.2,0,0,0-.35-5.62A24.89,24.89,0,0,0,67.56,74c-1.12-2.67-1.43-2.65-2.33-4.94a41.71,41.71,0,0,1-1.59-5.23c-.24-.95-.3-1.25-1.25-5.4-.53-2.35-.8-3.53-.82-3.6A18.15,18.15,0,0,0,56,46.4,20.15,20.15,0,0,0,47.46,41.92Z" transform="translate(-0.12 0)"/><path d="M18.28,48.38c-.35.19-6.31,3.26-12,0A13,13,0,0,1,1,41.64a12.73,12.73,0,0,1-.76-3.52C0,36.31,0,34.46.85,29.75c.73-4.27,1.09-6.41,1.76-8,1-2.38,2.06-4.78,4.49-6.19A10.3,10.3,0,0,1,17.23,16c3,1.82,4.1,5.41,6.36,12.6a23.45,23.45,0,0,1,1.34,8,14.38,14.38,0,0,1-.9,5.28A13,13,0,0,1,18.28,48.38Z" transform="translate(-0.12 0)"/><path d="M39.31,35.06a11.72,11.72,0,0,1-7.08-2.12c-2.82-2.12-3.76-5.14-4.49-7.61a24.69,24.69,0,0,1-.15-13c1-4,2.27-8.74,6.62-11A11,11,0,0,1,45,1.62c2.83,1.82,3.82,4.56,5.36,8.81a27.76,27.76,0,0,1,1.79,11.89c-.27,3.61-.56,6.8-3,9.4C45.94,35.27,41,35.11,39.31,35.06Z" transform="translate(-0.12 0)"/><path d="M57.71,22.48c-1.05,2.84-2.29,6.22-1.17,10a12.54,12.54,0,0,0,5.1,6.73,12.4,12.4,0,0,0,8.16,1.92c5.77-.61,9.26-5.15,10.91-7.3A22.59,22.59,0,0,0,85.2,22.63c.38-3.5,1-8.63-2.25-12C78.54,6.06,70.7,8.76,70,9c-3.91,1.41-6.29,4.23-8,6.29A24.63,24.63,0,0,0,57.71,22.48Z" transform="translate(-0.12 0)"/><path d="M70.58,51.71a16.81,16.81,0,0,0-1.11,5.74,13.63,13.63,0,0,0,1.8,8,12.33,12.33,0,0,0,6.44,5c8.64,2.66,17-7.07,17.49-7.68a19.92,19.92,0,0,0,4.11-8c.47-2,2-8.67-2-12.89-3.55-3.65-9-3.06-10.75-2.88-5.49.59-9,3.95-11.21,6A17.6,17.6,0,0,0,70.58,51.71Z" transform="translate(-0.12 0)"/></svg>