<svg id="Share" xmlns="http://www.w3.org/2000/svg" viewBox="0 0 150 200"><title>share</title><path id="Box" d="M143,60h-3V75a20,20,0,0,1,20,20v70a20,20,0,0,1-20,20H60a20,20,0,0,1-20-20V95A20,20,0,0,1,60,75V60H57A32,32,0,0,0,25,92v76a32,32,0,0,0,32,32h86a32,32,0,0,0,32-32V92A32,32,0,0,0,143,60Z" transform="translate(-25 0)"/><rect id="Box_Corner" data-name="Box Corner" x="27.5" y="60" width="25" height="15" rx="7.5"/><rect id="Box_Corner-2" data-name="Box Corner" x="97.5" y="60" width="25" height="15" rx="7.5"/><rect id="Arrow_Bar" data-name="Arrow Bar" x="68.69" width="15" height="130" rx="7.5"/><rect id="Arrow_Right" data-name="Arrow Right" x="116.22" y="-11.73" width="15" height="70" rx="7.5" transform="translate(8.69 111.27) rotate(-55)"/><rect id="Arrow_Left" data-name="Arrow Left" x="71.16" y="-11.73" width="15" height="70" rx="7.5" transform="translate(27.61 -54.51) rotate(55)"/></svg>